<?xml version="1.0" encoding="UTF-8"?>
<svg width="18px" height="14px" viewBox="0 0 18 14" version="1.1" xmlns="http://www.w3.org/2000/svg" xmlns:xlink="http://www.w3.org/1999/xlink">
    <!-- Generator: Sketch 41 (35326) - http://www.bohemiancoding.com/sketch -->
    <title>Shape</title>
    <desc>Created with Sketch.</desc>
    <defs></defs>
    <g id="Page-1" stroke="none" stroke-width="1" fill="none" fill-rule="evenodd">
        <g id="All-Elements" transform="translate(-341.000000, -431.000000)" fill="#FF2851">
            <g id="E-mail" transform="translate(80.000000, 414.000000)">
                <g id="Arrow" transform="translate(261.000000, 16.000000)">
                    <path d="M17.798,8.532 C17.786,8.545 17.782,8.561 17.77,8.573 L11.547,14.748 C11.234,15.06 10.728,15.06 10.415,14.748 C10.103,14.439 10.103,13.936 10.415,13.626 L15.329,8.75 L0.765,8.75 C0.342,8.75 0,8.407 0,7.984 C0,7.562 0.342,7.219 0.765,7.219 L15.336,7.219 L10.415,2.335 C10.103,2.025 10.103,1.522 10.415,1.212 C10.728,0.903 11.234,0.903 11.547,1.212 L17.77,7.388 C17.805,7.422 17.821,7.465 17.848,7.504 C17.957,7.636 18.031,7.799 18.031,7.984 C18.031,8.2 17.941,8.393 17.798,8.532 L17.798,8.532 Z" id="Shape"></path>
                </g>
            </g>
        </g>
    </g>
</svg>